<mxfile host="app.diagrams.net" modified="2024-04-05T14:06:42.767Z" agent="Mozilla/5.0 (Windows NT 10.0; Win64; x64) AppleWebKit/537.36 (KHTML, like Gecko) Chrome/123.0.0.0 Safari/537.36" version="24.2.1" etag="5T7_xA3Wlu_1jLvbB3xy" type="github">
  <diagram name="Page-1" id="xNoKHyTNhum_BbY7pHtI">
    <mxGraphModel>
      <root>
        <mxCell id="0" />
        <mxCell id="1" parent="0" />
      </root>
    </mxGraphModel>
  </diagram>
</mxfile>
